<?xml version="1.0" encoding="UTF-8"?> <svg xmlns="http://www.w3.org/2000/svg" xmlns:xlink="http://www.w3.org/1999/xlink" width="1920" zoomAndPan="magnify" viewBox="0 0 1440 599.999999" height="800" preserveAspectRatio="xMidYMid meet" version="1.0"><defs><clipPath id="ac12c7f07b"><path d="M 340 13.480469 L 638 13.480469 L 638 553 L 340 553 Z M 340 13.480469 " clip-rule="nonzero"></path></clipPath><clipPath id="6ebcd2e666"><path d="M 563.019531 502.523438 C 544.96875 477.828125 535.527344 445.890625 534.96875 407.578125 C 534.789062 395.355469 535.542969 382.324219 537.167969 368.550781 L 478.710938 372.660156 L 527.296875 45.011719 L 358.339844 13.488281 L 355.363281 98.265625 C 389.292969 129.421875 408.773438 173.25 413.246094 228.871094 L 413.3125 229.726562 L 413.3125 230.585938 C 413.3125 293.488281 391.503906 341.683594 348.484375 373.84375 C 347.546875 374.546875 346.558594 375.195312 345.609375 375.886719 L 340.054688 533.621094 L 637.71875 552.945312 C 605.363281 543.007812 580.328125 526.207031 563.019531 502.539062 " clip-rule="nonzero"></path></clipPath><clipPath id="23dd64a8ac"><path d="M 0 0.480469 L 297.921875 0.480469 L 297.921875 539.960938 L 0 539.960938 Z M 0 0.480469 " clip-rule="nonzero"></path></clipPath><clipPath id="db0ab595b9"><path d="M 223.019531 489.523438 C 204.96875 464.828125 195.527344 432.890625 194.96875 394.578125 C 194.789062 382.355469 195.542969 369.324219 197.167969 355.550781 L 138.710938 359.660156 L 187.296875 32.011719 L 18.339844 0.488281 L 15.363281 85.265625 C 49.292969 116.421875 68.773438 160.25 73.246094 215.871094 L 73.3125 216.726562 L 73.3125 217.585938 C 73.3125 280.488281 51.503906 328.683594 8.484375 360.84375 C 7.546875 361.546875 6.558594 362.195312 5.609375 362.886719 L 0.0546875 520.621094 L 297.71875 539.945312 C 265.363281 530.007812 240.328125 513.207031 223.019531 489.539062 " clip-rule="nonzero"></path></clipPath><clipPath id="45e60b3d78"><rect x="0" width="298" y="0" height="540"></rect></clipPath><clipPath id="daebb368e2"><path d="M 556 284 L 889 284 L 889 542.339844 L 556 542.339844 Z M 556 284 " clip-rule="nonzero"></path></clipPath><clipPath id="2e745ffd6c"><path d="M 888.097656 367.160156 L 848.707031 364.285156 L 826.78125 362.6875 L 829.003906 340.824219 L 834.726562 284.464844 L 768.117188 302.359375 C 793.890625 410.558594 776.179688 464.851562 714.980469 465.242188 C 663.429688 464.082031 657.695312 411.078125 697.800781 306.207031 L 577.285156 286.179688 C 524.824219 455.746094 570.730469 541.097656 714.992188 542.253906 C 829.796875 541.019531 887.460938 482.617188 888.097656 367.160156 " clip-rule="nonzero"></path></clipPath><clipPath id="246b006e9d"><path d="M 0 0.398438 L 332.238281 0.398438 L 332.238281 258.339844 L 0 258.339844 Z M 0 0.398438 " clip-rule="nonzero"></path></clipPath><clipPath id="3880311c66"><path d="M 332.097656 83.160156 L 292.707031 80.285156 L 270.78125 78.6875 L 273.003906 56.824219 L 278.726562 0.464844 L 212.117188 18.359375 C 237.890625 126.558594 220.179688 180.851562 158.980469 181.242188 C 107.429688 180.082031 101.695312 127.078125 141.800781 22.207031 L 21.285156 2.179688 C -31.175781 171.746094 14.730469 257.097656 158.992188 258.253906 C 273.796875 257.019531 331.460938 198.617188 332.097656 83.160156 " clip-rule="nonzero"></path></clipPath><clipPath id="7825836adb"><rect x="0" width="333" y="0" height="259"></rect></clipPath><clipPath id="870720ce8d"><path d="M 850.082031 258 L 1130 258 L 1130 546 L 850.082031 546 Z M 850.082031 258 " clip-rule="nonzero"></path></clipPath><clipPath id="2cafff1de0"><path d="M 1006.140625 525.933594 L 1023.175781 499.898438 L 1041.136719 472.445312 L 1033.1875 354.726562 L 1113.453125 361.878906 L 1129.957031 336.664062 L 1122.714844 258.257812 L 857.484375 271.734375 L 850.253906 342.972656 L 942.730469 349.707031 L 921.699219 545.714844 L 1008.921875 526.53125 Z M 1006.140625 525.933594 " clip-rule="nonzero"></path></clipPath><clipPath id="68f892fe75"><path d="M 0.0820312 0.238281 L 280 0.238281 L 280 287.761719 L 0.0820312 287.761719 Z M 0.0820312 0.238281 " clip-rule="nonzero"></path></clipPath><clipPath id="54a0f2c4d0"><path d="M 156.140625 267.933594 L 173.175781 241.898438 L 191.136719 214.445312 L 183.1875 96.726562 L 263.453125 103.878906 L 279.957031 78.664062 L 272.714844 0.257812 L 7.484375 13.734375 L 0.253906 84.972656 L 92.730469 91.707031 L 71.699219 287.714844 L 158.921875 268.53125 Z M 156.140625 267.933594 " clip-rule="nonzero"></path></clipPath><clipPath id="6def438502"><rect x="0" width="280" y="0" height="288"></rect></clipPath><clipPath id="b52dc64a6a"><path d="M 1041 30 L 1419 30 L 1419 587 L 1041 587 Z M 1041 30 " clip-rule="nonzero"></path></clipPath><clipPath id="fb4309baf8"><path d="M 1054.035156 201.429688 L 1243.957031 201.429688 L 1041.042969 511.589844 L 1389.582031 586.523438 L 1392.117188 394.523438 L 1254.113281 410.375 L 1418.933594 102.359375 L 1091.566406 30.316406 Z M 1054.035156 201.429688 " clip-rule="nonzero"></path></clipPath><clipPath id="88ae30e99e"><path d="M 0 0.238281 L 378 0.238281 L 378 556.558594 L 0 556.558594 Z M 0 0.238281 " clip-rule="nonzero"></path></clipPath><clipPath id="dcf7dcee5a"><path d="M 13.035156 171.429688 L 202.957031 171.429688 L 0.0429688 481.589844 L 348.582031 556.523438 L 351.117188 364.523438 L 213.113281 380.375 L 377.933594 72.359375 L 50.566406 0.316406 Z M 13.035156 171.429688 " clip-rule="nonzero"></path></clipPath><clipPath id="6f5498661a"><rect x="0" width="378" y="0" height="557"></rect></clipPath><clipPath id="7a28dcb0a4"><path d="M 21.0625 64 L 392 64 L 392 535.839844 L 21.0625 535.839844 Z M 21.0625 64 " clip-rule="nonzero"></path></clipPath><clipPath id="4d1d304b14"><path d="M 277.425781 216.371094 C 283.082031 248.414062 238.191406 264.425781 142.75 264.425781 L 127.898438 198.4375 C 164.128906 190.699219 193.78125 186.839844 216.890625 186.839844 C 253.757812 186.839844 273.941406 196.683594 277.414062 216.371094 M 21.066406 82.019531 L 47.308594 535.140625 L 185.703125 499.949219 L 164.234375 398.773438 C 165.144531 398.773438 166.042969 398.789062 166.9375 398.789062 C 316.949219 398.789062 391.957031 342.726562 391.957031 230.597656 C 383.050781 119.550781 310.835938 64.035156 175.273438 64.035156 C 130.722656 64.023438 79.300781 70.03125 21.066406 82.019531 " clip-rule="nonzero"></path></clipPath><clipPath id="086b671b1a"><path d="M 0.0625 0 L 371 0 L 371 471.199219 L 0.0625 471.199219 Z M 0.0625 0 " clip-rule="nonzero"></path></clipPath><clipPath id="cad778144e"><path d="M 256.425781 152.371094 C 262.082031 184.414062 217.191406 200.425781 121.75 200.425781 L 106.898438 134.4375 C 143.128906 126.699219 172.78125 122.839844 195.890625 122.839844 C 232.757812 122.839844 252.941406 132.683594 256.414062 152.371094 M 0.0664062 18.019531 L 26.308594 471.140625 L 164.703125 435.949219 L 143.234375 334.773438 C 144.144531 334.773438 145.042969 334.789062 145.9375 334.789062 C 295.949219 334.789062 370.957031 278.726562 370.957031 166.597656 C 362.050781 55.550781 289.835938 0.0351562 154.273438 0.0351562 C 109.722656 0.0234375 58.300781 6.03125 0.0664062 18.019531 " clip-rule="nonzero"></path></clipPath><clipPath id="33bfc0e468"><rect x="0" width="371" y="0" height="472"></rect></clipPath></defs><g clip-path="url(#ac12c7f07b)"><g clip-path="url(#6ebcd2e666)"><g transform="matrix(1, 0, 0, 1, 340, 13)"><g clip-path="url(#45e60b3d78)"><g clip-path="url(#23dd64a8ac)"><g clip-path="url(#db0ab595b9)"><rect x="-656.8" width="2073.6" fill="#ffffff" height="863.999999" y="-145" fill-opacity="1"></rect></g></g></g></g></g></g><g clip-path="url(#daebb368e2)"><g clip-path="url(#2e745ffd6c)"><g transform="matrix(1, 0, 0, 1, 556, 284)"><g clip-path="url(#7825836adb)"><g clip-path="url(#246b006e9d)"><g clip-path="url(#3880311c66)"><rect x="-872.8" width="2073.6" fill="#ffffff" height="863.999999" y="-416" fill-opacity="1"></rect></g></g></g></g></g></g><g clip-path="url(#870720ce8d)"><g clip-path="url(#2cafff1de0)"><g transform="matrix(1, 0, 0, 1, 850, 258)"><g clip-path="url(#6def438502)"><g clip-path="url(#68f892fe75)"><g clip-path="url(#54a0f2c4d0)"><rect x="-1166.8" width="2073.6" fill="#ffffff" height="863.999999" y="-390" fill-opacity="1"></rect></g></g></g></g></g></g><g clip-path="url(#b52dc64a6a)"><g clip-path="url(#fb4309baf8)"><g transform="matrix(1, 0, 0, 1, 1041, 30)"><g clip-path="url(#6f5498661a)"><g clip-path="url(#88ae30e99e)"><g clip-path="url(#dcf7dcee5a)"><rect x="-1357.8" width="2073.6" fill="#ffffff" height="863.999999" y="-162" fill-opacity="1"></rect></g></g></g></g></g></g><g clip-path="url(#7a28dcb0a4)"><g clip-path="url(#4d1d304b14)"><g transform="matrix(1, 0, 0, 1, 21, 64)"><g clip-path="url(#33bfc0e468)"><g clip-path="url(#086b671b1a)"><g clip-path="url(#cad778144e)"><rect x="-337.8" width="2073.6" fill="#ffffff" height="863.999999" y="-196" fill-opacity="1"></rect></g></g></g></g></g></g></svg> 